<?xml version="1.0" encoding="UTF-8"?>
<svg id="Warstwa_1" xmlns="http://www.w3.org/2000/svg" viewBox="0 0 259.12 31">
  <defs>
    <style>
      .cls-1 {
        fill: none;
      }

      .cls-2 {
        fill: #fff;
      }
    </style>
  </defs>
  <g id="Group_649">
    <path id="Path_939" class="cls-2" d="M112.21,12.43l.5-2.9c-1.02-.36-2.09-.56-3.17-.59-1.75,0-5.9.76-5.9,4.48,0,3.49,4.87,3.54,4.87,5.37s-4.37,1.51-5.81.35l-.52,3.04c1.26.53,2.61.79,3.97.76,2.4,0,6.03-1.24,6.03-4.63s-4.91-3.84-4.91-5.37,3.43-1.33,4.94-.5M117.36,17.91l1.85-5.06,1.04,5.06h-2.89,0ZM121.23,22.7h3.23l-2.82-13.53h-2.83c-.7-.05-1.36.36-1.63,1.01l-5.25,12.52h3.67l.73-2.01h4.47l.42,2.01h.01ZM93.53,9.17l-3.36,9.3-.4-2h0l-1.18-6.08c-.15-.78-.88-1.32-1.67-1.22h-5.55l-.07.23c1.3.33,2.54.85,3.68,1.55l3.06,11.75h3.66l5.6-13.53h-3.78,0ZM100.01,22.7h-3.52l2.2-13.53h3.52l-2.2,13.53Z"/>
    <path id="Path_940" class="cls-2" d="M89.78,16.47l-1.19-6.08c-.15-.78-.88-1.32-1.67-1.22h-5.55l-.07.23c1.91.49,3.69,1.38,5.23,2.62,1.46,1.17,2.58,2.7,3.24,4.45"/>
  </g>
  <g id="Group_159">
    <rect id="Rectangle_133" class="cls-2" x="231.12" y="6.86" width="3.32" height="18.6"/>
    <rect id="Rectangle_134" class="cls-2" x="237.28" y="13.14" width="3.32" height="12.32"/>
    <path id="Path_911" class="cls-2" d="M255.48,25.45l-4.99-6.52h0l4.59-5.8h-3.92l-4.4,5.63V6.86h-3.32v18.6h3.32v-6.33l4.4,6.32h4.32Z"/>
    <path id="Path_912" class="cls-2" d="M222.66,13c-1.04,0-2.06.26-2.98.75v-6.89h-3.32v12.44c0,3.48,2.82,6.3,6.3,6.3s6.3-2.82,6.3-6.3-2.82-6.3-6.3-6.3h0ZM222.66,22.27c-1.65,0-2.98-1.33-2.98-2.98,0-1.65,1.33-2.98,2.98-2.98,1.65,0,2.98,1.33,2.98,2.98h0c0,1.64-1.33,2.98-2.97,2.98,0,0,0,0-.01,0Z"/>
    <circle id="Ellipse_24" class="cls-2" cx="225.9" cy="8.9" r="2.96"/>
  </g>
  <g>
    <polygon class="cls-2" points="14.2 16.95 19.25 16.94 19.06 18.09 14.84 22.11 18.38 22.11 18.18 23.35 12.96 23.35 13.18 22.07 17.22 18.19 13.99 18.19 14.2 16.95"/>
    <path class="cls-2" d="M8.69,14.99c-.11-.11-.26-.2-.44-.27-.18-.07-.39-.12-.59-.16-.25-.04-.5-.06-.67-.07-.16-.01-.26-.01-.26-.01h-3.85l-1.47,8.88h1.37l.54-3.29h2.67s1.04.05,1.77-.34c.73-.39.94-1.27.94-1.27,0,0,.08-.33.15-.73.07-.44.15-.97.18-1.25.02-.12.03-.2.03-.2,0,0,.02-.09.02-.23,0-.19-.03-.49-.18-.77-.07-.09-.13-.18-.21-.26ZM7.63,16.56s-.12.73-.29,1.58c-.06.33-.31.5-.59.56-.47.1-.98.08-.98.08h-2.23s.49-2.96.49-2.96h2.02s.13.01.33.01c.21,0,.5.01.74.04.2.03.37.07.42.13.07.08.09.19.1.3.01.13-.01.25-.01.26Z"/>
    <polygon class="cls-2" points="26.08 14.47 27.4 14.47 25.93 23.35 24.6 23.35 26.08 14.47"/>
    <polygon class="cls-2" points="33.14 16.95 34.41 16.94 34.86 21.45 36.8 16.94 38.37 16.94 38.83 21.47 40.77 16.94 42.1 16.94 39.3 23.35 37.74 23.35 37.29 18.87 35.32 23.35 33.79 23.35 33.14 16.95"/>
    <g>
      <path class="cls-2" d="M23.65,17c-.37-.12-1.01-.14-1.56-.14-.53.01-.76.03-.97.07,0,0-.94.13-1.47.79s-.69,2.1-.69,2.1c0,0-.32,1.59-.22,2.12.09.53.25,1.02.86,1.25s1.11.22,1.11.22c0,0,1.07.08,1.87-.1s1.23-.75,1.23-.75c0,0,.19-.24.33-.54.13-.3.17-.49.18-.52l.08-.35h-1.37s-.07.91-.81.99c-.74.08-1.13.05-1.28.04-.14-.01-.94.03-.88-.63v-.04c.03-.75.12-.95.12-.95h4.31s.18-1.08.18-1.08c.23-1.21.08-2.13-1.02-2.48ZM23.35,19.33h-2.95l.11-.47s.1-.37.31-.52.47-.18.71-.2.9-.07,1.44.04c.17.03.35.13.39.29.11.34,0,.87,0,.87Z"/>
      <path class="cls-2" d="M20.08,21.52v.03c-.01.05,0-.03,0-.03Z"/>
    </g>
    <path class="cls-2" d="M31.76,17c-.37-.12-1.01-.14-1.56-.14-.53.01-.76.03-.97.07,0,0-.94.13-1.47.79-.53.66-.69,2.1-.69,2.1,0,0-.32,1.59-.22,2.12.09.53.25,1.02.86,1.25.6.23,1.11.22,1.11.22,0,0,1.07.08,1.87-.1.8-.19,1.23-.75,1.23-.75,0,0,.19-.24.33-.54s.17-.49.18-.52l.08-.35h-1.37s-.07.91-.81.99c-.74.08-1.13.05-1.28.05-.14-.01-.94.03-.88-.63v-.04c.03-.75.12-.95.12-.95h4.31s.18-1.08.18-1.08c.23-1.21.09-2.14-1.02-2.49ZM31.47,19.33h-2.95l.11-.47s.1-.37.31-.52.47-.18.71-.2.9-.07,1.44.04c.17.03.35.13.39.29.11.34,0,.87,0,.87Z"/>
    <path class="cls-2" d="M43.61,16.95l.85,4.68,2.39-4.68h1.34s-3.45,6.7-3.45,6.7c0,0-.62,1.21-1.01,1.52s-.62.45-.94.48c-.32.03-.45.05-.74,0l-.33-.06.2-1.19s.54.1.86-.03c.32-.12.57-.67.57-.67l.16-.27-1.25-6.49,1.34.02h0Z"/>
    <path class="cls-2" d="M48.7,17.58h1.38l.08-.54s.15-.98.48-1.16c.1-.06.27-.11.48-.15.37-.06.82-.07,1.2-.06.58.02.79.03,1.38.09.59.07.44.63.44.63l-.11.85s-.05.38-.18.61c-.12.21-.45.36-.64.42-.46.15-2.03.55-2.03.55l-1.23.36s-.75.22-1.18.68c-.43.47-.59,1-.65,1.28-.06.27-.39,2.2-.39,2.2h6.65l.22-1.32h-5.25s.09-.53.09-.53c0,0,.06-.56.29-.74.07-.06.1-.13.53-.29.25-.09,1.11-.32,1.11-.32l1.99-.54s1.08-.27,1.51-.88c.43-.59.59-1.72.59-1.72,0,0,.11-1.1.03-1.45-.09-.35-.42-.75-.8-.94-.4-.17-.8-.29-2.01-.26-1.19.02-1.79.07-2.39.3-.61.22-.96.63-1.18,1.2-.25.56-.4,1.73-.4,1.73h0Z"/>
    <path class="cls-2" d="M61.21,20.06l.94-5.58h-1.65l-5.14,5.52-.23,1.4h4.49l-.33,1.97h1.38l.33-1.97h1.27l.22-1.33h-1.28ZM59.85,20.06h-2.9l3.53-3.77-.63,3.77Z"/>
    <path class="cls-2" d="M11.6,15.2h4.24s.95-.76,1.62-1.26c.67-.49,1.9-1.27,1.9-1.27l-2.39-1.12s-2.03,1.25-2.88,1.84c-.83.55-2.48,1.81-2.48,1.81h0Z"/>
    <path class="cls-2" d="M20.69,11.88l-1.97-1.32s1.77-1.01,4.14-1.96c2.36-.94,3.63-1.33,3.63-1.33l.4,1.87s-2.27.76-3.57,1.37c-1.34.58-2.63,1.36-2.63,1.36h0Z"/>
    <path class="cls-2" d="M28.35,8.73l-.35-1.91s2.42-.64,4.64-1.06c2.22-.42,5.16-.61,5.16-.61l-.98,2.96s-2.59-.36-5.02-.02c-1.88.22-3.46.64-3.46.64h0Z"/>
    <path class="cls-2" d="M38.38,8.37l1.64-3.29s3.58-.07,6.68.41,5.93,1.21,5.87,1.24l-7.85,4.1s-1.83-1.16-4.11-1.87c-1.28-.38-2.22-.59-2.22-.59h0Z"/>
    <path class="cls-2" d="M46.13,11.73l1.72,1.31h14.17s-.03-.46-.41-1.11c-.23-.41-.66-.83-1.11-1.28-.16-.16-.81-.67-1.3-.99-1.25-.81-1.96-1.13-3.25-1.71l-9.83,3.78h0Z"/>
    <path class="cls-2" d="M12.52,16.94c-.53,0-1.04.21-1.47.45l.07-.45h-1.41l-1.13,6.37h1.42l.62-3.53c.13-.71.66-1.6,1.71-1.6h.73l.22-1.24h-.77Z"/>
  </g>
  <g>
    <path class="cls-1" d="M156.33,14.66s.04,0,.07-.01c-.02,0-.04,0-.07.01Z"/>
    <path class="cls-1" d="M163.04,16.91l.28-1.5h.52l.18-.8h-.54l.21-.98h-1.01l-.7,3.52c-.19,1.01.57,1.15.8,1.15s.53-.04.75-.18l.06-.75c-.58.09-.61-.17-.56-.45Z"/>
    <path class="cls-1" d="M156.51,14.63s.03,0,.04,0c0,0-.02,0-.04,0Z"/>
    <path class="cls-1" d="M156.56,14.61s.02,0,0,0h0Z"/>
    <path class="cls-1" d="M157.61,14.54c-.31.01-.66,0-1.32.13h0l-.16.8c.25-.03.91-.13,1.26-.12.35.01.74-.04.62.52-.26.03-2.07-.26-2.36,1.29-.12.76.54,1.15,1.06,1.13.52-.03.66-.09.84-.22l.13.21h.94l.4-2.02c.1-.5.27-1.72-1.42-1.72ZM157.76,17.03c-.07.34-.54.55-.87.43-.34-.13-.25-.52.08-.74.32-.22.7-.12.87-.09l-.08.4Z"/>
    <path class="cls-1" d="M161.44,16.33c-.19-.13-.52-.31-.73-.4-.21-.09-.36-.44.01-.54.23-.03.71-.03,1,.05l.23-.75c-.48-.18-.85-.14-1-.14s-1.35-.01-1.54.88c-.14.69.11.97.35,1.07.39.17.61.32.82.43.26.13.21.56-.13.56-.16,0-.83.08-1.33-.09l-.14.76c.47.13.84.13,1.19.13.25,0,1.45.06,1.62-1.05.08-.54-.16-.79-.35-.91ZM161.72,15.43s-.02,0-.04-.01c.01,0,.02,0,.04.01ZM161.62,15.41s-.02,0-.02,0c0,0,.01,0,.02,0Z"/>
    <polygon class="cls-1" points="154.36 13.8 153.13 16.52 152.93 13.8 151.31 13.8 150.45 18.28 151.46 18.28 152.08 15.04 152.35 18.28 153.31 18.28 154.72 15.12 154.12 18.28 155.17 18.28 156.01 13.8 154.36 13.8"/>
    <path class="cls-1" d="M173.66,14.61s.02,0,0,0h0Z"/>
    <path class="cls-1" d="M156.29,14.67s.02,0,.03,0c-.01,0-.02,0-.03,0Z"/>
    <path class="cls-1" d="M167.06,16.62c.12-.6.39-2.07-1.39-2.07-1.63,0-1.84,1.62-1.88,1.85-.04.23-.06,1.88,1.68,1.88.43.01,1.05-.04,1.29-.17l.16-.76c-.16.04-.74.09-1.14.09s-1.05.03-.93-.82h2.2ZM164.97,15.76s0,.03-.01.05c0-.02,0-.04.01-.05ZM164.94,15.89s-.01.05-.01.06c0-.02,0-.04.01-.06ZM165.72,15.28c.4,0,.52.31.45.67h-1.26c.12-.47.4-.67.8-.67Z"/>
    <path class="cls-1" d="M173.42,14.66s.04,0,.07-.01c-.02,0-.04,0-.07.01Z"/>
    <path class="cls-1" d="M173.6,14.63s.03,0,.04,0c0,0-.02,0-.04,0Z"/>
    <path class="cls-1" d="M171.87,14.66c.34,0,.52.03.78.18l.66-.66c-.26-.28-.56-.56-1.39-.6-.7-.03-1.9.48-2.28,1.88-.52,1.89.62,2.82,1.67,2.82.56,0,.89-.08,1.23-.23l-.3-.91c-1.04.35-1.77-.18-1.61-1.26.14-.91.89-1.23,1.23-1.23Z"/>
    <path class="cls-1" d="M181.53,13.57l-.27,1.42h0c-.19-.14-.31-.44-.79-.44-.56,0-1.42-.1-1.92,1.58-.33,1.13.34,2.15,1.06,2.15.34-.01.67-.16.88-.3l.13.3h1.09l.88-4.71h-1.06ZM180.9,16.51c-.18.45-.41.75-.79.75-.35,0-.66-.4-.52-.93.22-.81.93-1.14,1.24-.72.11.15.17.57.06.91Z"/>
    <path class="cls-1" d="M173.38,14.67s.02,0,.03,0c-.01,0-.02,0-.03,0Z"/>
    <path class="cls-1" d="M174.7,14.54c-.31.01-.66,0-1.32.13h0l-.16.8c.25-.03.91-.13,1.26-.12.35.01.74-.04.62.52-.26.03-2.07-.26-2.36,1.29-.12.76.54,1.15,1.06,1.13.52-.03.66-.09.84-.22l.13.21h.94l.4-2.02c.1-.5.27-1.72-1.42-1.72ZM174.85,17.03c-.06.34-.54.55-.87.43-.34-.13-.25-.52.08-.74s.7-.12.87-.09h0l-.08.4Z"/>
    <path class="cls-1" d="M177.77,14.93l-.09-.37h-.88l-.69,3.71h1.02l.31-1.7c.3-1.11.77-1.05,1.02-1.05l.27-.97c-.51,0-.81.18-.97.37Z"/>
    <path class="cls-2" d="M156.97,16.71c-.32.22-.41.61-.08.74.32.12.8-.09.87-.43l.08-.4c-.17-.03-.54-.13-.87.09Z"/>
    <path class="cls-2" d="M161.68,15.42s.03,0,.04.01c-.01,0-.03,0-.04-.01Z"/>
    <path class="cls-2" d="M165.72,15.28c-.4,0-.69.21-.8.67h1.26c.06-.36-.05-.67-.45-.67Z"/>
    <path class="cls-2" d="M161.6,15.4s.01,0,.02,0c-.01,0-.02,0-.02,0Z"/>
    <path class="cls-2" d="M174.06,16.71c-.32.22-.41.61-.08.74.32.12.8-.09.87-.43l.08-.4h0c-.17-.03-.54-.13-.87.09Z"/>
    <path class="cls-2" d="M164.96,15.81s0-.04.01-.05c0,0,0,.03-.01.05Z"/>
    <path class="cls-2" d="M173.45,5.89c-2.41,0-4.59.84-6.32,2.25,1.32,1.27,2.32,2.87,2.86,4.67h-.83c-.52-1.6-1.44-3.02-2.63-4.15-1.2,1.14-2.1,2.57-2.62,4.14h-.83c.53-1.77,1.51-3.37,2.84-4.66-1.72-1.4-3.9-2.26-6.29-2.26-5.54,0-10.04,4.49-10.04,10.04s4.49,10.04,10.04,10.04c2.39,0,4.57-.86,6.29-2.26-1.33-1.28-2.3-2.89-2.84-4.66h.83c.52,1.58,1.42,3,2.62,4.14,1.19-1.13,2.11-2.55,2.63-4.15h.83c-.54,1.8-1.55,3.4-2.86,4.67,1.73,1.41,3.92,2.25,6.32,2.25,5.54,0,10.04-4.49,10.04-10.04s-4.49-10.04-10.04-10.04ZM173.66,14.61s.02,0,0,0h0ZM173.63,14.62s-.02,0-.04,0c.01,0,.03,0,.04,0ZM173.49,14.65s-.05,0-.07.01c.03,0,.05,0,.07-.01ZM173.41,14.66s-.03,0-.03,0c.01,0,.02,0,.03,0ZM156.56,14.61s.02,0,0,0h0ZM156.54,14.62s-.02,0-.04,0c.01,0,.03,0,.04,0ZM156.4,14.65s-.05,0-.07.01c.03,0,.05,0,.07-.01ZM156.32,14.66s-.03,0-.03,0c.01,0,.02,0,.03,0ZM154.12,18.28l.6-3.16-1.41,3.16h-.96l-.27-3.24-.62,3.24h-1.01l.87-4.48h1.62l.19,2.72,1.23-2.72h1.66l-.84,4.48h-1.05ZM157.68,18.28l-.13-.21c-.18.13-.32.19-.84.22-.52.03-1.18-.36-1.06-1.13.28-1.55,2.1-1.27,2.36-1.29.12-.56-.27-.5-.62-.52-.35-.01-1.01.09-1.26.12l.16-.8h0c.66-.13,1.01-.12,1.32-.13,1.7,0,1.53,1.22,1.42,1.72l-.4,2.02h-.94ZM161.79,17.23c-.17,1.11-1.37,1.05-1.62,1.05-.35,0-.72,0-1.19-.13l.14-.76c.5.17,1.18.09,1.33.09.34,0,.39-.43.13-.56-.21-.1-.43-.26-.82-.43-.24-.1-.49-.39-.35-1.07.19-.9,1.4-.88,1.54-.88s.52-.04,1,.14l-.23.75c-.28-.08-.76-.08-1-.05-.38.1-.22.45-.01.54.21.09.53.27.73.4.19.12.43.36.35.91ZM163.54,18.11c-.22.14-.52.18-.75.18s-1-.14-.8-1.15l.7-3.52h1.01l-.21.98h.54l-.18.8h-.52l-.28,1.5c-.05.28-.03.54.56.45l-.06.75ZM165.79,17.44c.4,0,.98-.05,1.14-.09l-.16.76c-.25.13-.87.18-1.29.17-1.75,0-1.72-1.64-1.68-1.88.04-.23.25-1.85,1.88-1.85,1.77,0,1.5,1.48,1.39,2.07h-2.2c-.12.84.53.82.93.82ZM168.41,16.6l-.31,1.68h-1.01l.69-3.68h.87l.09.36c.16-.18.45-.36.96-.36l-.26.97c-.25,0-.73-.08-1.02,1.02ZM172.25,17.14l.3.91c-.34.16-.67.23-1.23.23-1.05,0-2.19-.93-1.67-2.82.38-1.39,1.58-1.9,2.28-1.88.83.03,1.13.31,1.39.6l-.66.66c-.26-.16-.44-.18-.78-.18s-1.09.32-1.23,1.23c-.17,1.07.57,1.61,1.61,1.26ZM174.77,18.28l-.13-.21c-.18.13-.32.19-.84.22-.52.03-1.18-.36-1.06-1.13.28-1.55,2.1-1.27,2.36-1.29.12-.56-.27-.5-.62-.52-.35-.01-1.01.09-1.26.12l.16-.8h0c.66-.13,1.01-.12,1.32-.13,1.7,0,1.53,1.22,1.42,1.72l-.4,2.02h-.94ZM177.45,16.58l-.31,1.7h-1.02l.69-3.71h.88l.09.37c.16-.18.46-.37.97-.37l-.27.97c-.25,0-.72-.07-1.02,1.05ZM180.63,18.28l-.13-.3c-.21.14-.54.28-.88.3-.72,0-1.39-1.02-1.06-2.15.49-1.68,1.36-1.58,1.92-1.58.48,0,.6.3.79.44h0l.27-1.42h1.06l-.88,4.71h-1.09Z"/>
    <path class="cls-2" d="M179.59,16.33c-.14.53.17.93.52.93.38,0,.61-.3.79-.75.1-.34.05-.76-.06-.91-.31-.41-1.02-.09-1.24.72Z"/>
    <path class="cls-2" d="M164.92,15.95s0-.03.01-.06c0,.02,0,.03-.01.06Z"/>
  </g>
</svg>