<?xml version="1.0" encoding="UTF-8"?>
<svg id="Warstwa_1" xmlns="http://www.w3.org/2000/svg" xmlns:xlink="http://www.w3.org/1999/xlink" viewBox="0 0 262.06 31">
  <defs>
    <style>
      .cls-1 {
        fill: #f59e1e;
      }

      .cls-2 {
        fill: url(#Gradient_bez_nazwy_2);
      }

      .cls-3 {
        fill: #eb611c;
      }

      .cls-4 {
        fill: #050707;
      }

      .cls-5 {
        fill: #e41221;
      }

      .cls-6 {
        fill: #b3b2b1;
      }

      .cls-7 {
        fill: #263575;
      }

      .cls-8 {
        fill: #d13239;
      }
    </style>
    <radialGradient id="Gradient_bez_nazwy_2" data-name="Gradient bez nazwy 2" cx="-931.36" cy="107.2" fx="-931.36" fy="107.2" r="1.64" gradientTransform="translate(5739.85 -25.54) scale(5.92)" gradientUnits="userSpaceOnUse">
      <stop offset="0" stop-color="#e52421"/>
      <stop offset=".49" stop-color="#e83d4a"/>
      <stop offset="1" stop-color="#a6529a"/>
    </radialGradient>
  </defs>
  <g id="Group_649">
    <path id="Path_939" class="cls-7" d="M114.53,12.43l.5-2.9c-1.02-.36-2.09-.56-3.17-.59-1.75,0-5.9.76-5.9,4.48,0,3.49,4.87,3.54,4.87,5.37s-4.37,1.51-5.81.35l-.52,3.04c1.26.53,2.61.79,3.97.76,2.4,0,6.03-1.24,6.03-4.63s-4.91-3.84-4.91-5.37,3.43-1.33,4.94-.5M119.68,17.91l1.85-5.06,1.04,5.06h-2.89,0ZM123.55,22.7h3.23l-2.82-13.53h-2.83c-.7-.05-1.36.36-1.63,1.01l-5.25,12.52h3.67l.73-2.01h4.47l.42,2.01h.01ZM95.85,9.17l-3.36,9.3-.4-2h0l-1.18-6.08c-.15-.78-.88-1.32-1.67-1.22h-5.55l-.07.23c1.3.33,2.54.85,3.68,1.55l3.06,11.75h3.66l5.6-13.53h-3.78,0ZM102.33,22.7h-3.52l2.2-13.53h3.52l-2.2,13.53Z"/>
    <path id="Path_940" class="cls-7" d="M92.1,16.47l-1.19-6.08c-.15-.78-.88-1.32-1.67-1.22h-5.55l-.07.23c1.91.49,3.69,1.38,5.23,2.62,1.46,1.17,2.58,2.7,3.24,4.45"/>
  </g>
  <g id="Grupo_128">
    <rect id="Rectangle_152" class="cls-3" x="166.79" y="8.04" width="9.46" height="15.45"/>
    <path id="Path_936" class="cls-5" d="M167.77,15.77c0-3.01,1.38-5.86,3.75-7.72-4.26-3.35-10.44-2.61-13.79,1.65-3.35,4.26-2.61,10.44,1.65,13.79,3.56,2.8,8.58,2.8,12.14,0-2.37-1.86-3.76-4.71-3.75-7.73h0Z"/>
    <path id="Path_938" class="cls-1" d="M187.41,15.77c0,5.43-4.4,9.83-9.83,9.83-2.2,0-4.34-.74-6.07-2.1,4.27-3.36,5-9.53,1.65-13.8-.48-.61-1.04-1.17-1.65-1.65,4.26-3.36,10.44-2.62,13.8,1.64,1.37,1.73,2.11,3.88,2.1,6.09h0Z"/>
  </g>
  <g id="Group_159">
    <rect id="Rectangle_133" class="cls-4" x="233.44" y="6.86" width="3.32" height="18.6"/>
    <rect id="Rectangle_134" class="cls-4" x="239.6" y="13.14" width="3.32" height="12.32"/>
    <path id="Path_911" class="cls-4" d="M257.8,25.45l-4.99-6.52h0l4.59-5.8h-3.92l-4.4,5.63V6.86h-3.32v18.6h3.32v-6.33l4.4,6.32h4.32Z"/>
    <path id="Path_912" class="cls-4" d="M224.98,13c-1.04,0-2.06.26-2.98.75v-6.89h-3.32v12.44c0,3.48,2.82,6.3,6.3,6.3s6.3-2.82,6.3-6.3-2.82-6.3-6.3-6.3h0ZM224.98,22.27c-1.65,0-2.98-1.33-2.98-2.98,0-1.65,1.33-2.98,2.98-2.98,1.65,0,2.98,1.33,2.98,2.98h0c0,1.64-1.33,2.98-2.97,2.98,0,0,0,0-.01,0Z"/>
    <circle id="Ellipse_24" class="cls-2" cx="228.22" cy="8.9" r="2.96"/>
  </g>
  <g>
    <polygon class="cls-8" points="16.52 16.95 21.57 16.94 21.39 18.09 17.16 22.11 20.71 22.11 20.5 23.35 15.29 23.35 15.5 22.07 19.55 18.19 16.32 18.19 16.52 16.95"/>
    <path class="cls-8" d="M11.01,14.99c-.11-.11-.26-.2-.44-.27-.18-.07-.39-.12-.59-.16-.25-.04-.5-.06-.67-.07-.16-.01-.26-.01-.26-.01h-3.85l-1.47,8.88h1.37l.54-3.29h2.67s1.04.05,1.77-.34c.73-.39.94-1.27.94-1.27,0,0,.08-.33.15-.73.07-.44.15-.97.18-1.25.02-.12.03-.2.03-.2,0,0,.02-.09.02-.23,0-.19-.03-.49-.18-.77-.07-.09-.13-.18-.21-.26ZM9.95,16.56s-.12.73-.29,1.58c-.06.33-.31.5-.59.56-.47.1-.98.08-.98.08h-2.23s.49-2.96.49-2.96h2.02s.13.01.33.01c.21,0,.5.01.74.04.2.03.37.07.42.13.07.08.09.19.1.3.01.13-.01.25-.01.26Z"/>
    <polygon class="cls-8" points="28.4 14.47 29.73 14.47 28.25 23.35 26.93 23.35 28.4 14.47"/>
    <polygon class="cls-8" points="35.46 16.95 36.73 16.94 37.18 21.45 39.13 16.94 40.69 16.94 41.15 21.47 43.1 16.94 44.42 16.94 41.62 23.35 40.06 23.35 39.61 18.87 37.64 23.35 36.11 23.35 35.46 16.95"/>
    <g>
      <path class="cls-8" d="M25.97,17c-.37-.12-1.01-.14-1.56-.14-.53.01-.76.03-.97.07,0,0-.94.13-1.47.79s-.69,2.1-.69,2.1c0,0-.32,1.59-.22,2.12.09.53.25,1.02.86,1.25s1.11.22,1.11.22c0,0,1.07.08,1.87-.1s1.23-.75,1.23-.75c0,0,.19-.24.33-.54.13-.3.17-.49.18-.52l.08-.35h-1.37s-.07.91-.81.99c-.74.08-1.13.05-1.28.04-.14-.01-.94.03-.88-.63v-.04c.03-.75.12-.95.12-.95h4.31s.18-1.08.18-1.08c.23-1.21.08-2.13-1.02-2.48ZM25.67,19.33h-2.95l.11-.47s.1-.37.31-.52.47-.18.71-.2.9-.07,1.44.04c.17.03.35.13.39.29.11.34,0,.87,0,.87Z"/>
      <path class="cls-8" d="M22.41,21.52v.03c-.01.05,0-.03,0-.03Z"/>
    </g>
    <path class="cls-8" d="M34.09,17c-.37-.12-1.01-.14-1.56-.14-.53.01-.76.03-.97.07,0,0-.94.13-1.47.79-.53.66-.69,2.1-.69,2.1,0,0-.32,1.59-.22,2.12.09.53.25,1.02.86,1.25.6.23,1.11.22,1.11.22,0,0,1.07.08,1.87-.1.8-.19,1.23-.75,1.23-.75,0,0,.19-.24.33-.54s.17-.49.18-.52l.08-.35h-1.37s-.07.91-.81.99c-.74.08-1.13.05-1.28.05-.14-.01-.94.03-.88-.63v-.04c.03-.75.12-.95.12-.95h4.31s.18-1.08.18-1.08c.23-1.21.09-2.14-1.02-2.49ZM33.79,19.33h-2.95l.11-.47s.1-.37.31-.52.47-.18.71-.2.9-.07,1.44.04c.17.03.35.13.39.29.11.34,0,.87,0,.87Z"/>
    <path class="cls-8" d="M45.94,16.95l.85,4.68,2.39-4.68h1.34s-3.45,6.7-3.45,6.7c0,0-.62,1.21-1.01,1.52s-.62.45-.94.48c-.32.03-.45.05-.74,0l-.33-.06.2-1.19s.54.1.86-.03c.32-.12.57-.67.57-.67l.16-.27-1.25-6.49,1.34.02h0Z"/>
    <path class="cls-6" d="M51.02,17.58h1.38l.08-.54s.15-.98.48-1.16c.1-.06.27-.11.48-.15.37-.06.82-.07,1.2-.06.58.02.79.03,1.38.09.59.07.44.63.44.63l-.11.85s-.05.38-.18.61c-.12.21-.45.36-.64.42-.46.15-2.03.55-2.03.55l-1.23.36s-.75.22-1.18.68c-.43.47-.59,1-.65,1.28-.06.27-.39,2.2-.39,2.2h6.65l.22-1.32h-5.25s.09-.53.09-.53c0,0,.06-.56.29-.74.07-.06.1-.13.53-.29.25-.09,1.11-.32,1.11-.32l1.99-.54s1.08-.27,1.51-.88c.43-.59.59-1.72.59-1.72,0,0,.11-1.1.03-1.45-.09-.35-.42-.75-.8-.94-.4-.17-.8-.29-2.01-.26-1.19.02-1.79.07-2.39.3-.61.22-.96.63-1.18,1.2-.25.56-.4,1.73-.4,1.73h0Z"/>
    <path class="cls-6" d="M63.53,20.06l.94-5.58h-1.65l-5.14,5.52-.23,1.4h4.49l-.33,1.97h1.38l.33-1.97h1.27l.22-1.33h-1.28ZM62.17,20.06h-2.9l3.53-3.77-.63,3.77Z"/>
    <path class="cls-6" d="M13.92,15.2h4.24s.95-.76,1.62-1.26c.67-.49,1.9-1.27,1.9-1.27l-2.39-1.12s-2.03,1.25-2.88,1.84c-.83.55-2.48,1.81-2.48,1.81h0Z"/>
    <path class="cls-6" d="M23.02,11.88l-1.97-1.32s1.77-1.01,4.14-1.96c2.36-.94,3.63-1.33,3.63-1.33l.4,1.87s-2.27.76-3.57,1.37c-1.34.58-2.63,1.36-2.63,1.36h0Z"/>
    <path class="cls-6" d="M30.67,8.73l-.35-1.91s2.42-.64,4.64-1.06c2.22-.42,5.16-.61,5.16-.61l-.98,2.96s-2.59-.36-5.02-.02c-1.88.22-3.46.64-3.46.64h0Z"/>
    <path class="cls-6" d="M40.7,8.37l1.64-3.29s3.58-.07,6.68.41,5.93,1.21,5.87,1.24l-7.85,4.1s-1.83-1.16-4.11-1.87c-1.28-.38-2.22-.59-2.22-.59h0Z"/>
    <path class="cls-6" d="M48.45,11.73l1.72,1.31h14.17s-.03-.46-.41-1.11c-.23-.41-.66-.83-1.11-1.28-.16-.16-.81-.67-1.3-.99-1.25-.81-1.96-1.13-3.25-1.71l-9.83,3.78h0Z"/>
    <path class="cls-8" d="M14.84,16.94c-.53,0-1.04.21-1.47.45l.07-.45h-1.41l-1.13,6.37h1.42l.62-3.53c.13-.71.66-1.6,1.71-1.6h.73l.22-1.24h-.77Z"/>
  </g>
</svg>